<?xml version="1.0" standalone="no"?>
<!DOCTYPE svg PUBLIC "-//W3C//DTD SVG 20010904//EN"
 "http://www.w3.org/TR/2001/REC-SVG-20010904/DTD/svg10.dtd">
<svg version="1.0" xmlns="http://www.w3.org/2000/svg"
 width="278.000000pt" height="278.000000pt" viewBox="0 0 278.000000 278.000000"
 preserveAspectRatio="xMidYMid meet">
<metadata>
Created by potrace 1.14, written by Peter Selinger 2001-2017
</metadata>
<g transform="translate(0.000000,278.000000) scale(0.100000,-0.100000)"
fill="#000000" stroke="none">
<path d="M1930 2103 l-186 -3 -46 -148 c-200 -635 -254 -802 -259 -802 -7 0
-10 9 -69 180 l-32 95 120 338 119 337 -180 -2 -180 -3 -39 -130 c-22 -71 -50
-165 -63 -208 -13 -43 -25 -80 -27 -82 -2 -2 -32 93 -67 211 l-64 214 -179 0
c-167 0 -180 -1 -173 -17 3 -10 27 -76 51 -148 25 -71 61 -173 79 -225 19 -52
49 -138 67 -192 l32 -96 -38 -119 c-62 -188 -54 -181 -86 -83 -15 47 -55 173
-89 280 -34 107 -66 206 -71 220 -5 14 -34 105 -65 203 l-56 177 -210 0 c-115
0 -209 -2 -209 -4 0 -2 37 -100 81 -218 45 -117 85 -224 89 -238 5 -14 29 -79
55 -145 26 -66 62 -163 81 -215 19 -52 40 -108 48 -125 7 -16 50 -130 96 -253
l83 -222 170 2 170 3 100 247 c84 205 102 244 112 230 6 -9 54 -122 106 -250
l94 -232 169 2 170 3 20 50 c10 28 21 52 22 54 2 2 43 -12 91 -31 173 -69 337
-99 507 -93 213 8 371 85 452 221 35 60 56 170 49 262 -6 92 -19 133 -56 188
-66 97 -171 155 -423 235 -178 57 -218 83 -209 133 17 89 198 79 405 -24 45
-22 85 -37 89 -33 19 22 159 305 154 312 -10 17 -220 100 -315 124 -101 26
-101 26 -490 20z m125 -872 c39 -13 79 -26 90 -30 11 -4 52 -18 90 -30 102
-33 141 -73 116 -120 -38 -70 -257 -40 -462 65 l-77 39 30 77 29 76 57 -27
c31 -16 89 -38 127 -50z"/>
</g>
</svg>
