<?xml version="1.0" standalone="no"?>
<!DOCTYPE svg PUBLIC "-//W3C//DTD SVG 20010904//EN"
 "http://www.w3.org/TR/2001/REC-SVG-20010904/DTD/svg10.dtd">
<svg version="1.0" xmlns="http://www.w3.org/2000/svg"
 width="201.000000pt" height="201.000000pt" viewBox="0 0 201.000000 201.000000"
 preserveAspectRatio="xMidYMid meet">
<metadata>
Created by potrace 1.14, written by Peter Selinger 2001-2017
</metadata>
<g transform="translate(0.000000,201.000000) scale(0.100000,-0.100000)"
fill="#000000" stroke="none">
<path d="M1550 1466 c-75 -20 -118 -46 -163 -96 -51 -57 -67 -103 -67 -196 0
-129 59 -186 257 -249 150 -48 191 -68 199 -100 9 -37 -1 -54 -43 -72 -32 -13
-50 -14 -108 -6 -80 12 -168 43 -219 78 l-36 24 -45 -90 c-25 -49 -43 -94 -40
-100 11 -16 96 -56 175 -81 63 -19 96 -23 205 -23 119 0 135 2 186 26 105 49
159 134 159 248 0 147 -68 209 -310 284 -141 44 -160 57 -160 102 0 89 146 97
298 15 l52 -28 45 82 c25 46 45 86 45 89 0 14 -126 69 -198 88 -85 22 -166 23
-232 5z"/>
<path d="M13 1458 c3 -7 80 -206 172 -443 92 -236 169 -436 172 -442 4 -9 33
-13 97 -13 l91 0 49 123 c28 67 61 147 74 177 l24 55 72 -175 72 -175 91 -3
91 -3 17 43 c45 113 335 859 335 863 0 3 -51 5 -113 5 l-112 0 -103 -302 c-57
-167 -109 -316 -116 -332 -11 -28 -13 -26 -56 89 l-44 118 36 101 c20 56 54
152 77 214 l41 113 -98 -3 -97 -3 -44 -137 c-25 -76 -48 -138 -51 -138 -3 0
-26 62 -50 138 l-45 137 -92 3 c-67 2 -93 -1 -93 -9 0 -7 31 -99 70 -206 38
-107 70 -200 70 -206 0 -29 -83 -238 -90 -226 -4 8 -56 157 -116 331 l-109
318 -114 0 c-86 0 -112 -3 -108 -12z"/>
</g>
</svg>
